<?xml version="1.0" ?><svg height="48px" id="svg2913" width="48px" xmlns="http://www.w3.org/2000/svg" xmlns:cc="http://creativecommons.org/ns#" xmlns:dc="http://purl.org/dc/elements/1.1/" xmlns:inkscape="http://www.inkscape.org/namespaces/inkscape" xmlns:rdf="http://www.w3.org/1999/02/22-rdf-syntax-ns#" xmlns:sodipodi="http://sodipodi.sourceforge.net/DTD/sodipodi-0.dtd" xmlns:svg="http://www.w3.org/2000/svg" xmlns:xlink="http://www.w3.org/1999/xlink"><defs id="defs3"><radialGradient cx="605.71429" cy="486.64789" fx="605.71429" fy="486.64789" gradientTransform="matrix(-2.774389,0,0,1.969706,112.7623,-872.8854)" gradientUnits="userSpaceOnUse" id="radialGradient6719" r="117.14286" xlink:href="#linearGradient5060"/><linearGradient id="linearGradient5060"><stop id="stop5062" offset="0" style="stop-color:black;stop-opacity:1;"/><stop id="stop5064" offset="1" style="stop-color:black;stop-opacity:0;"/></linearGradient><radialGradient cx="605.71429" cy="486.64789" fx="605.71429" fy="486.64789" gradientTransform="matrix(2.774389,0,0,1.969706,-1891.633,-872.8854)" gradientUnits="userSpaceOnUse" id="radialGradient6717" r="117.14286" xlink:href="#linearGradient5060"/><linearGradient id="linearGradient5048"><stop id="stop5050" offset="0" style="stop-color:black;stop-opacity:0;"/><stop id="stop5056" offset="0.5" style="stop-color:black;stop-opacity:1;"/><stop id="stop5052" offset="1" style="stop-color:black;stop-opacity:0;"/></linearGradient><linearGradient gradientTransform="matrix(2.774389,0,0,1.969706,-1892.179,-872.8854)" gradientUnits="userSpaceOnUse" id="linearGradient6715" x1="302.85715" x2="302.85715" xlink:href="#linearGradient5048" y1="366.64789" y2="609.50507"/><linearGradient id="linearGradient2555"><stop id="stop2557" offset="0" style="stop-color:#ffffff;stop-opacity:1;"/><stop id="stop2561" offset="0.50000000" style="stop-color:#e6e6e6;stop-opacity:1.0000000;"/><stop id="stop2563" offset="0.75000000" style="stop-color:#ffffff;stop-opacity:1.0000000;"/><stop id="stop2565" offset="0.84166664" style="stop-color:#e1e1e1;stop-opacity:1.0000000;"/><stop id="stop2559" offset="1.0000000" style="stop-color:#ffffff;stop-opacity:1.0000000;"/></linearGradient><linearGradient id="linearGradient4274"><stop id="stop4276" offset="0.0000000" style="stop-color:#ffffff;stop-opacity:0.25490198;"/><stop id="stop4278" offset="1.0000000" style="stop-color:#ffffff;stop-opacity:1.0000000;"/></linearGradient><linearGradient id="linearGradient4264"><stop id="stop4266" offset="0" style="stop-color:#000000;stop-opacity:1;"/><stop id="stop4268" offset="1" style="stop-color:#000000;stop-opacity:0;"/></linearGradient><linearGradient id="linearGradient4254"><stop id="stop4256" offset="0" style="stop-color:#ffffff;stop-opacity:1;"/><stop id="stop4258" offset="1" style="stop-color:#ffffff;stop-opacity:0;"/></linearGradient><linearGradient id="linearGradient4244"><stop id="stop4246" offset="0.0000000" style="stop-color:#e4e4e4;stop-opacity:1.0000000;"/><stop id="stop4248" offset="1.0000000" style="stop-color:#d3d3d3;stop-opacity:1.0000000;"/></linearGradient><linearGradient id="linearGradient4236"><stop id="stop4238" offset="0" style="stop-color:#eeeeee;stop-opacity:1;"/><stop id="stop4240" offset="1" style="stop-color:#eeeeee;stop-opacity:0;"/></linearGradient><linearGradient id="linearGradient4228"><stop id="stop4230" offset="0.0000000" style="stop-color:#bbbbbb;stop-opacity:1.0000000;"/><stop id="stop4232" offset="1.0000000" style="stop-color:#9f9f9f;stop-opacity:1.0000000;"/></linearGradient><linearGradient id="linearGradient4184"><stop id="stop4186" offset="0.0000000" style="stop-color:#838383;stop-opacity:1.0000000;"/><stop id="stop4188" offset="1.0000000" style="stop-color:#bbbbbb;stop-opacity:0.0000000;"/></linearGradient><linearGradient gradientTransform="translate(0.795493,-1.325821)" gradientUnits="userSpaceOnUse" id="linearGradient4209" x1="7.0625000" x2="24.687500" xlink:href="#linearGradient4184" y1="35.281250" y2="35.281250"/><linearGradient gradientUnits="userSpaceOnUse" id="linearGradient4234" x1="7.6046205" x2="36.183067" xlink:href="#linearGradient4228" y1="28.481176" y2="40.943935"/><linearGradient gradientUnits="userSpaceOnUse" id="linearGradient4242" x1="12.277412" x2="12.221823" xlink:href="#linearGradient4236" y1="37.205811" y2="33.758667"/><radialGradient cx="15.571491" cy="2.9585190" fx="15.571491" fy="2.9585190" gradientTransform="matrix(1.286242,0.781698,-0.710782,1.169552,-2.354348,-4.876862)" gradientUnits="userSpaceOnUse" id="radialGradient4250" r="20.935817" xlink:href="#linearGradient4244"/><linearGradient gradientUnits="userSpaceOnUse" id="linearGradient4260" x1="12.378357" x2="44.096100" xlink:href="#linearGradient4254" y1="4.4331360" y2="47.620636"/><radialGradient cx="23.201941" cy="27.096155" fx="23.201941" fy="27.096155" gradientTransform="matrix(1.000000,0.000000,0.000000,0.651032,0.000000,9.455693)" gradientUnits="userSpaceOnUse" id="radialGradient4270" r="23.555494" xlink:href="#linearGradient4264"/><linearGradient gradientUnits="userSpaceOnUse" id="linearGradient4272" x1="23.688078" x2="23.688078" xlink:href="#linearGradient4274" y1="11.318835" y2="26.357183"/><linearGradient gradientUnits="userSpaceOnUse" id="linearGradient2553" x1="33.431175" x2="21.747974" xlink:href="#linearGradient2555" y1="31.964777" y2="11.780679"/></defs><g id="layer2"><g id="g6707" transform="matrix(2.45274e-2,0,0,2.086758e-2,45.69054,36.1536)"><rect height="478.35718" id="rect6709" style="opacity:0.40206185;color:black;fill:url(#linearGradient6715);fill-opacity:1;fill-rule:nonzero;stroke:none;stroke-width:1;stroke-linecap:round;stroke-linejoin:miter;marker:none;marker-start:none;marker-mid:none;marker-end:none;stroke-miterlimit:4;stroke-dasharray:none;stroke-dashoffset:0;stroke-opacity:1;visibility:visible;display:inline;overflow:visible" width="1339.6335" x="-1559.2523" y="-150.69685"/><path d="M -219.61876,-150.68038 C -219.61876,-150.68038 -219.61876,327.65041 -219.61876,327.65041 C -76.744594,328.55086 125.78146,220.48075 125.78138,88.454235 C 125.78138,-43.572302 -33.655436,-150.68036 -219.61876,-150.68038 z " id="path6711" style="opacity:0.40206185;color:black;fill:url(#radialGradient6717);fill-opacity:1;fill-rule:nonzero;stroke:none;stroke-width:1;stroke-linecap:round;stroke-linejoin:miter;marker:none;marker-start:none;marker-mid:none;marker-end:none;stroke-miterlimit:4;stroke-dasharray:none;stroke-dashoffset:0;stroke-opacity:1;visibility:visible;display:inline;overflow:visible"/><path d="M -1559.2523,-150.68038 C -1559.2523,-150.68038 -1559.2523,327.65041 -1559.2523,327.65041 C -1702.1265,328.55086 -1904.6525,220.48075 -1904.6525,88.454235 C -1904.6525,-43.572302 -1745.2157,-150.68036 -1559.2523,-150.68038 z " id="path6713" style="opacity:0.40206185;color:black;fill:url(#radialGradient6719);fill-opacity:1;fill-rule:nonzero;stroke:none;stroke-width:1;stroke-linecap:round;stroke-linejoin:miter;marker:none;marker-start:none;marker-mid:none;marker-end:none;stroke-miterlimit:4;stroke-dasharray:none;stroke-dashoffset:0;stroke-opacity:1;visibility:visible;display:inline;overflow:visible"/></g><path d="M 11.285690,7.9626278 C 10.660690,7.9626278 10.254441,8.2528080 10.004442,8.8063808 C 10.004441,8.8063808 3.5356915,25.909938 3.5356915,25.909938 C 3.5356915,25.909938 3.2856915,26.581497 3.2856915,27.691188 C 3.2856915,27.691188 3.2856915,37.341156 3.2856915,37.341156 C 3.2856915,38.423769 3.9434770,38.966158 4.9419415,38.966156 L 43.504440,38.966156 C 44.489293,38.966156 45.098190,38.247976 45.098190,37.122406 L 45.098190,27.472438 C 45.098190,27.472438 45.204153,26.702015 45.004440,26.159938 L 38.285690,8.9626314 C 38.101165,8.4507246 37.648785,7.9745331 37.160690,7.9626278 L 11.285690,7.9626278 z " id="path4196" style="stroke-opacity:1.0000000;stroke-dasharray:none;stroke-miterlimit:4.0000000;stroke-linejoin:round;stroke-linecap:round;stroke-width:2.0000000;stroke:#535353;fill-rule:evenodd;fill-opacity:1.0000000;fill:none"/><path d="M 3.2735915,26.996812 L 4.0381936,26.304597 L 41.647883,26.367097 L 45.110290,26.684395 L 45.110290,37.122927 C 45.110290,38.248496 44.503272,38.966258 43.518419,38.966258 L 4.9354314,38.966258 C 3.9369667,38.966258 3.2735915,38.424207 3.2735915,37.341594 L 3.2735915,26.996812 z " id="path4170" style="fill:url(#linearGradient4234);fill-opacity:1.0;fill-rule:evenodd;stroke:none;stroke-width:1.0204430px;stroke-linecap:butt;stroke-linejoin:miter;stroke-opacity:1.0000000"/><path d="M 3.5490842,25.914404 C 2.8347985,27.378690 3.5484686,28.307261 4.5847985,28.307261 C 4.5847985,28.307261 43.584797,28.307261 43.584797,28.307261 C 44.703844,28.283451 45.430035,27.295356 45.013368,26.164403 L 38.299082,8.9537044 C 38.114558,8.4417976 37.644320,7.9656058 37.156225,7.9537008 L 11.299083,7.9537008 C 10.674083,7.9537008 10.263369,8.2572740 10.013370,8.8108468 C 10.013370,8.8108468 3.5490842,25.914404 3.5490842,25.914404 z " id="path3093" style="fill:url(#radialGradient4250);fill-opacity:1.0;fill-rule:evenodd;stroke:none;stroke-width:1.0000000px;stroke-linecap:butt;stroke-linejoin:miter;stroke-opacity:1.0000000"/><rect height="5.5625000" id="rect4174" style="opacity:1.0000000;color:#000000;fill:url(#linearGradient4209);fill-opacity:1.0000000;fill-rule:evenodd;stroke:none;stroke-width:2.4089999;stroke-linecap:round;stroke-linejoin:round;marker:none;marker-start:none;marker-mid:none;marker-end:none;stroke-miterlimit:4.0000000;stroke-dasharray:none;stroke-dashoffset:0.0000000;stroke-opacity:1.0000000;visibility:visible;display:inline;overflow:visible" width="17.625000" x="7.8579960" y="31.174183"/><path d="M 7.8579947,36.736680 C 7.8579947,36.736680 7.8579947,32.725195 7.8579947,32.725195 C 9.6935221,35.904421 16.154485,36.736680 20.795492,36.736680 C 20.795492,36.736680 7.8579947,36.736680 7.8579947,36.736680 z " id="path4194" style="opacity:0.81142857;stroke-opacity:1.0000000;stroke-linejoin:miter;stroke-linecap:butt;stroke-width:1.0000000px;stroke:none;fill-rule:evenodd;fill-opacity:1.0;fill:url(#linearGradient4242)"/><path d="M 44.796162,25.628688 C 44.859684,26.878662 44.382159,27.944528 43.474046,27.972438 C 43.474046,27.972438 5.3553296,27.972437 5.3553297,27.972438 C 4.0660978,27.972438 3.4875937,27.647491 3.2712790,27.104382 C 3.3630404,28.048714 4.0970964,28.753688 5.3553297,28.753688 C 5.3553296,28.753687 43.474046,28.753688 43.474046,28.753688 C 44.550053,28.720617 45.226851,27.329664 44.826210,25.758897 L 44.796162,25.628688 z " id="path4201" style="fill:#ffffff;fill-opacity:1.0000000;fill-rule:evenodd;stroke:none;stroke-width:1.0000000px;stroke-linecap:butt;stroke-linejoin:miter;stroke-opacity:1.0000000"/><path d="M 10.968750 10.156250 C 10.922675 10.356571 10.781250 10.543047 10.781250 10.750000 C 10.781250 11.698605 11.372230 12.539474 12.125000 13.343750 C 12.365268 13.189675 12.490117 12.989342 12.750000 12.843750 C 11.809691 12.027746 11.196604 11.127168 10.968750 10.156250 z M 37.625000 10.156250 C 37.396273 11.125866 36.782988 12.028676 35.843750 12.843750 C 36.117894 12.997332 36.247738 13.211990 36.500000 13.375000 C 37.257262 12.568344 37.812500 11.701956 37.812500 10.750000 C 37.812500 10.543047 37.670906 10.356571 37.625000 10.156250 z M 39.812500 18.593750 C 39.198709 22.633861 32.513887 25.843750 24.281250 25.843750 C 16.068996 25.843751 9.4211001 22.650964 8.7812500 18.625000 C 8.7488928 18.822132 8.6562500 19.016882 8.6562500 19.218750 C 8.6562503 23.536697 15.645354 27.062501 24.281250 27.062500 C 32.917146 27.062500 39.937499 23.536698 39.937500 19.218750 C 39.937500 19.005826 39.848449 18.801394 39.812500 18.593750 z " id="path4211" style="opacity:0.69142857;color:#000000;fill:url(#linearGradient4272);fill-opacity:1.0000000;fill-rule:evenodd;stroke:none;stroke-width:2.0000000;stroke-linecap:round;stroke-linejoin:round;marker:none;marker-start:none;marker-mid:none;marker-end:none;stroke-miterlimit:4.0000000;stroke-dasharray:none;stroke-dashoffset:0.0000000;stroke-opacity:1.0000000;visibility:visible;display:inline;overflow:visible"/><path d="M 8.5736699 25.593554 A 1.3700194 1.0164660 0 1 1  5.8336310,25.593554 A 1.3700194 1.0164660 0 1 1  8.5736699 25.593554 z" id="path4224" style="opacity:1.0000000;color:#000000;fill:#ffffff;fill-opacity:0.45762709;fill-rule:evenodd;stroke:none;stroke-width:2.0000000;stroke-linecap:round;stroke-linejoin:round;marker:none;marker-start:none;marker-mid:none;marker-end:none;stroke-miterlimit:4.0000000;stroke-dasharray:none;stroke-dashoffset:0.0000000;stroke-opacity:1.0000000;visibility:visible;display:inline;overflow:visible" transform="translate(8.838843e-2,0.176776)"/><path d="M 8.5736699 25.593554 A 1.3700194 1.0164660 0 1 1  5.8336310,25.593554 A 1.3700194 1.0164660 0 1 1  8.5736699 25.593554 z" id="path4226" style="opacity:1.0000000;color:#000000;fill:#ffffff;fill-opacity:0.45762709;fill-rule:evenodd;stroke:none;stroke-width:2.0000000;stroke-linecap:round;stroke-linejoin:round;marker:none;marker-start:none;marker-mid:none;marker-end:none;stroke-miterlimit:4.0000000;stroke-dasharray:none;stroke-dashoffset:0.0000000;stroke-opacity:1.0000000;visibility:visible;display:inline;overflow:visible" transform="translate(33.96705,8.838804e-2)"/><path d="M 11.642515,8.4157227 C 11.040823,8.4157227 10.649724,8.6950813 10.409049,9.2280100 C 10.409048,9.2280100 3.9940341,25.818732 3.9940341,25.818732 C 3.9940341,25.818732 3.7533573,26.465247 3.7533573,27.533555 C 3.7533573,27.533555 3.7533573,36.823651 3.7533573,36.823651 C 3.7533573,38.178391 4.1974134,38.450550 5.3478414,38.450550 L 43.034746,38.450550 C 44.357872,38.450550 44.569062,38.134153 44.569062,36.613058 L 44.569062,27.322962 C 44.569062,27.322962 44.671072,26.581271 44.478807,26.059409 L 37.885616,9.2534336 C 37.707973,8.7606171 37.334964,8.4271840 36.865071,8.4157227 L 11.642515,8.4157227 z " id="path4252" style="fill:none;fill-opacity:1.0000000;fill-rule:evenodd;stroke:url(#linearGradient4260);stroke-width:1.0000002;stroke-linecap:round;stroke-linejoin:round;stroke-miterlimit:4.0000000;stroke-dasharray:none;stroke-opacity:1.0000000"/><path d="M 40.500000,31.429166 L 40.500000,36.450101" id="path4282" style="fill:none;fill-opacity:0.75000000;fill-rule:evenodd;stroke:#ffffff;stroke-width:1.0000005px;stroke-linecap:square;stroke-linejoin:miter;stroke-opacity:0.42372882"/><path d="M 38.500000,31.488943 L 38.500000,36.509878" id="path4284" style="fill:none;fill-opacity:0.75000000;fill-rule:evenodd;stroke:#ffffff;stroke-width:1.0000005px;stroke-linecap:square;stroke-linejoin:miter;stroke-opacity:0.42372882"/><path d="M 36.500000,31.488943 L 36.500000,36.509878" id="path4286" style="fill:none;fill-opacity:0.75000000;fill-rule:evenodd;stroke:#ffffff;stroke-width:1.0000005px;stroke-linecap:square;stroke-linejoin:miter;stroke-opacity:0.42372882"/><path d="M 34.500000,31.488943 L 34.500000,36.509878" id="path4288" style="fill:none;fill-opacity:0.75000000;fill-rule:evenodd;stroke:#ffffff;stroke-width:1.0000005px;stroke-linecap:square;stroke-linejoin:miter;stroke-opacity:0.42372882"/><path d="M 32.500000,31.488943 L 32.500000,36.509878" id="path4290" style="fill:none;fill-opacity:0.75000000;fill-rule:evenodd;stroke:#ffffff;stroke-width:1.0000005px;stroke-linecap:square;stroke-linejoin:miter;stroke-opacity:0.42372882"/><path d="M 30.500000,31.488943 L 30.500000,36.509878" id="path4292" style="fill:none;fill-opacity:0.75000000;fill-rule:evenodd;stroke:#ffffff;stroke-width:1.0000005px;stroke-linecap:square;stroke-linejoin:miter;stroke-opacity:0.42372882"/><path d="M 39.500000,31.479065 L 39.500000,36.500000" id="path4294" style="opacity:0.097142857;fill:none;fill-opacity:0.75000000;fill-rule:evenodd;stroke:#000000;stroke-width:1.0000005px;stroke-linecap:square;stroke-linejoin:miter;stroke-opacity:1.0000000"/><path d="M 37.500000,31.538842 L 37.500000,36.559777" id="path4296" style="opacity:0.097142857;fill:none;fill-opacity:0.75000000;fill-rule:evenodd;stroke:#000000;stroke-width:1.0000005px;stroke-linecap:square;stroke-linejoin:miter;stroke-opacity:1.0000000"/><path d="M 35.500000,31.538842 L 35.500000,36.559777" id="path4298" style="opacity:0.097142857;fill:none;fill-opacity:0.75000000;fill-rule:evenodd;stroke:#000000;stroke-width:1.0000005px;stroke-linecap:square;stroke-linejoin:miter;stroke-opacity:1.0000000"/><path d="M 33.500000,31.538842 L 33.500000,36.559777" id="path4300" style="opacity:0.097142857;fill:none;fill-opacity:0.75000000;fill-rule:evenodd;stroke:#000000;stroke-width:1.0000005px;stroke-linecap:square;stroke-linejoin:miter;stroke-opacity:1.0000000"/><path d="M 31.500000,31.538842 L 31.500000,36.559777" id="path4302" style="opacity:0.097142857;fill:none;fill-opacity:0.75000000;fill-rule:evenodd;stroke:#000000;stroke-width:1.0000005px;stroke-linecap:square;stroke-linejoin:miter;stroke-opacity:1.0000000"/><path d="M 7.8750000,31.187500 L 7.8750000,36.718750 L 20.437500,36.718750 L 8.2187500,36.375000 L 7.8750000,31.187500 z " id="path4572" style="opacity:0.44000000;fill:#ffffff;fill-opacity:1.0000000;fill-rule:evenodd;stroke:none;stroke-width:1.0000000px;stroke-linecap:butt;stroke-linejoin:miter;stroke-opacity:1.0000000"/><path d="M 39.875000 19.562500 A 14.875000 6.6875000 0 1 1  10.125000,19.562500 A 14.875000 6.6875000 0 1 1  39.875000 19.562500 z" id="path2545" style="opacity:0.20571424;color:#000000;fill:url(#linearGradient2553);fill-opacity:1.0000000;fill-rule:evenodd;stroke:none;stroke-width:0.93365198;stroke-linecap:square;stroke-linejoin:round;marker:none;marker-start:none;marker-mid:none;marker-end:none;stroke-miterlimit:4.0000000;stroke-dasharray:none;stroke-dashoffset:0.0000000;stroke-opacity:0.42372879;visibility:visible;display:inline;overflow:visible" transform="matrix(1.037815,0.000000,0.000000,1.060747,-1.632878,-2.094626)"/></g></svg>