<?xml version="1.0" encoding="UTF-8" standalone="no"?>
<!-- Created with Inkscape (http://www.inkscape.org/) -->

<svg
   width="64"
   height="64"
   viewBox="0 0 16.933333 16.933333"
   version="1.1"
   id="svg1"
   sodipodi:docname="icon.svg"
   inkscape:version="1.3 (0e150ed6c4, 2023-07-21)"
   inkscape:export-filename="icon.png"
   inkscape:export-xdpi="768"
   inkscape:export-ydpi="768"
   xml:space="preserve"
   xmlns:inkscape="http://www.inkscape.org/namespaces/inkscape"
   xmlns:sodipodi="http://sodipodi.sourceforge.net/DTD/sodipodi-0.dtd"
   xmlns="http://www.w3.org/2000/svg"
   xmlns:svg="http://www.w3.org/2000/svg"><sodipodi:namedview
     id="namedview1"
     pagecolor="#ffffff"
     bordercolor="#000000"
     borderopacity="0.25"
     inkscape:showpageshadow="2"
     inkscape:pageopacity="0.0"
     inkscape:pagecheckerboard="0"
     inkscape:deskcolor="#d1d1d1"
     inkscape:zoom="2"
     inkscape:cx="163"
     inkscape:cy="114.25"
     inkscape:window-width="1920"
     inkscape:window-height="974"
     inkscape:window-x="-11"
     inkscape:window-y="-11"
     inkscape:window-maximized="1"
     inkscape:current-layer="svg1" /><defs
     id="defs1"><linearGradient
       gradientUnits="userSpaceOnUse"
       id="linearGradient2"
       x1="2.815382"
       x2="21.796017"
       y1="7.4190083"
       y2="16.269823"><stop
         offset="0"
         style="stop-color:#FFFFFF;stop-opacity:0.2"
         id="stop1" /><stop
         offset="1"
         style="stop-color:#FFFFFF;stop-opacity:0"
         id="stop2" /></linearGradient></defs><g
     id="g1"
     transform="matrix(2.2007558,0,0,2.2007558,-0.84986652,2.0017792)"><path
       id="path1"
       style="fill:#e5e5e5;fill-opacity:1;stroke:#494949;stroke-width:0.264583;stroke-linecap:round;stroke-linejoin:miter;stroke-dasharray:none;stroke-opacity:1"
       d="M 1.5875,4.2333332 2.6459161,2.1166665 h 3.1749587 l 1.0583333,2.1166667" /><path
       id="rect1"
       style="fill:#8b8b8b;fill-opacity:1;stroke:#494949;stroke-width:0.264583;stroke-linecap:round;stroke-opacity:1"
       d="M 1.5875414,4.2333332 H 6.8791667 V 6.35 H 1.5874586 Z" /><path
       id="path2"
       style="fill:#8b8b8b;fill-opacity:1;stroke:#494949;stroke-width:0.264583;stroke-linecap:round;stroke-opacity:1"
       d="M 6.35,4.7624999 V 5.8208333" /><path
       id="path3"
       style="fill:#8b8b8b;fill-opacity:1;stroke:#494949;stroke-width:0.264583;stroke-linecap:round;stroke-opacity:1"
       d="M 5.8208333,4.7624999 V 5.8208333" /><path
       id="path4"
       style="fill:#8b8b8b;fill-opacity:1;stroke:#494949;stroke-width:0.264583;stroke-linecap:round;stroke-opacity:1"
       d="M 5.2916666,4.7624999 V 5.8208333" /></g><path
     id="circle13"
     style="fill:#82c341;fill-opacity:1;stroke-width:0.418845"
     d="m 6.8000272,0.40518601 c -0.040314,-0.001502 -0.08259,0.00751 -0.119558,0.0302882 -0.098166,0.0611494 -0.127898,0.19036696 -0.066954,0.28853334 L 6.9801612,1.313827 C 6.3588767,1.7713742 5.9535568,2.5059899 5.9535568,3.3367486 h 5.0262182 c 0,-0.8307587 -0.405319,-1.5653744 -1.0266044,-2.0229217 L 10.319815,0.72400742 c 0.06094,-0.0981663 0.03122,-0.22738404 -0.06695,-0.28853339 -0.09857,-0.0607403 -0.227383,-0.0298243 -0.2885331,0.0685466 L 9.5976841,1.0938402 C 9.2576559,0.92212581 8.8744191,0.82284202 8.4674629,0.82284202 c -0.4069557,0 -0.790193,0.0992838 -1.1302219,0.27099818 L 6.9690025,0.50402068 c -0.038218,-0.061482 -0.101788,-0.09633 -0.1689753,-0.0988347 z M 7.4201347,2.0805926 A 0.20942182,0.20942182 0 0 1 7.6289614,2.2894194 0.20942182,0.20942182 0 0 1 7.4201347,2.4982486 0.20942182,0.20942182 0 0 1 7.2097117,2.2894194 0.20942182,0.20942182 0 0 1 7.4201347,2.0805926 Z m 2.0946564,0 A 0.20942182,0.20942182 0 0 1 9.7236179,2.2894194 0.20942182,0.20942182 0 0 1 9.5147911,2.4982486 0.20942182,0.20942182 0 0 1 9.3043679,2.2894194 0.20942182,0.20942182 0 0 1 9.5147911,2.0805926 Z m -4.608563,1.6754062 c -0.3464453,0 -0.6280778,0.2816335 -0.6280778,0.6280775 V 6.896389 c 0,0.346446 0.2816325,0.6280784 0.6280778,0.6280784 0.3464454,0 0.6280782,-0.2816329 0.6280782,-0.6280784 V 4.3840763 c 0,-0.346445 -0.2816328,-0.6280775 -0.6280782,-0.6280775 z m 1.0473287,0 v 3.7684686 c 0,0.4626348 0.3758652,0.8385 0.8384997,0.8385 v 1.4649842 c 0,0.3464454 0.2816327,0.6280784 0.6280782,0.6280784 0.3464455,0 0.628078,-0.281633 0.628078,-0.6280784 V 8.3629674 h 0.8369062 v 1.4649842 c 0,0.3464454 0.283227,0.6280784 0.6296722,0.6280784 0.3464455,0 0.6280779,-0.281633 0.6280779,-0.6280784 V 8.3629674 c 0.462635,0 0.836906,-0.3758652 0.836906,-0.8385 V 3.7559988 Z m 6.0735472,0 c -0.346446,0 -0.628079,0.2816335 -0.628079,0.6280775 V 6.896389 c 0,0.346446 0.281633,0.6280784 0.628079,0.6280784 0.346445,0 0.628077,-0.2816329 0.628077,-0.6280784 V 4.3840763 c 0,-0.346445 -0.281632,-0.6280775 -0.628077,-0.6280775 z" /></svg>
